<svg width="28" height="28" viewBox="0 0 28 28" fill="none" xmlns="http://www.w3.org/2000/svg">
<path d="M13.8844 10.8254V7.01587H9.91912V4.47619H13.8844V0.666664H16.528V4.47619H20.4933V7.01587H16.528V10.8254H13.8844ZM8.59736 27.3333C7.87038 27.3333 7.24827 27.0849 6.73102 26.5879C6.21289 26.0902 5.95382 25.4921 5.95382 24.7936C5.95382 24.0952 6.21289 23.4971 6.73102 22.9994C7.24827 22.5024 7.87038 22.254 8.59736 22.254C9.32433 22.254 9.94644 22.5024 10.4637 22.9994C10.9818 23.4971 11.2409 24.0952 11.2409 24.7936C11.2409 25.4921 10.9818 26.0902 10.4637 26.5879C9.94644 27.0849 9.32433 27.3333 8.59736 27.3333ZM21.815 27.3333C21.0881 27.3333 20.466 27.0849 19.9487 26.5879C19.4306 26.0902 19.1715 25.4921 19.1715 24.7936C19.1715 24.0952 19.4306 23.4971 19.9487 22.9994C20.466 22.5024 21.0881 22.254 21.815 22.254C22.542 22.254 23.1646 22.5024 23.6827 22.9994C24.1999 23.4971 24.4586 24.0952 24.4586 24.7936C24.4586 25.4921 24.1999 26.0902 23.6827 26.5879C23.1646 27.0849 22.542 27.3333 21.815 27.3333ZM8.59736 20.9841C7.60603 20.9841 6.84601 20.5659 6.31731 19.7295C5.7886 18.894 5.77758 18.0635 6.28426 17.2381L8.06865 14.127L3.31028 4.47619H0.666748V1.93651H4.99554L10.6131 13.3651H19.8985L25.0203 4.47619L27.3334 5.68254L22.2116 14.5714C21.9692 14.9947 21.6498 15.3228 21.2533 15.5556C20.8568 15.7884 20.4051 15.9048 19.8985 15.9048H10.0513L8.59736 18.4444H24.4586V20.9841H8.59736Z" fill="white"/>
</svg>
